<?xml version="1.0" encoding="UTF-8"?>
<svg xmlns="http://www.w3.org/2000/svg" width="3518.76px" height="993.58px" viewBox="0 0 3518.76 993.58">
<defs>
  <marker id="arr" markerWidth="6" markerHeight="6" refX="5" refY="3" orient="auto"><path d="M0,0 L0,6 L6,3 z" fill="#666"/></marker>
  <marker id="arr-r" markerWidth="6" markerHeight="6" refX="1" refY="3" orient="auto-start-reverse"><path d="M0,0 L0,6 L6,3 z" fill="#666"/></marker>
</defs>
<rect width="100%" height="100%" fill="#ffffff"/>
<g id="scale-ref" font-family="system-ui,sans-serif">
  <line x1="75.59" y1="948.23" x2="453.54" y2="948.23" stroke="#000" stroke-width="1.5"/>
  <line x1="75.59" y1="943.23" x2="75.59" y2="953.23" stroke="#000" stroke-width="1.5"/>
  <line x1="453.54" y1="943.23" x2="453.54" y2="953.23" stroke="#000" stroke-width="1.5"/>
  <text x="264.57" y="939.23" text-anchor="middle" font-size="11" fill="#000">10 cm (scale reference)</text>
</g>
<g id="body" transform="translate(75.59,75.59)">
  <path d="M709.32,421.20 L697.85,314.77 L663.98,214.81 L609.24,127.63 L536.33,59.25 L449.42,15.25 L354.66,0.00 L259.90,15.25 L172.98,59.25 L100.07,127.63 L45.34,214.81 L11.46,314.77 L0.00,421.20 L11.46,527.64 L45.34,627.60 L100.07,714.78 L172.98,783.15 L259.90,827.16 L354.66,842.40 L449.42,827.16 L536.33,783.15 L609.24,714.78 L663.98,627.60 L697.85,527.64 Z" fill="none" stroke="#bbbbbb" stroke-width="0.7" stroke-dasharray="5 3"/>
  <path d="M652.30,421.20 L642.15,327.05 L612.42,239.31 L565.12,163.97 L503.48,106.16 L431.69,69.82 L354.66,57.42 L277.62,69.82 L205.84,106.16 L144.20,163.97 L96.90,239.31 L67.16,327.05 L57.02,421.20 L67.16,515.35 L96.90,603.09 L144.20,678.43 L205.84,736.24 L277.62,772.59 L354.66,784.98 L431.69,772.59 L503.48,736.24 L565.12,678.43 L612.42,603.09 L642.15,515.35 Z" fill="#eef3ff" stroke="#222222" stroke-width="1.5"/>
  <line x1="354.66" y1="690.49" x2="354.66" y2="151.91" stroke="#555" stroke-width="0.8" marker-end="url(#arr)" marker-start="url(#arr-r)" stroke-dasharray="6 3"/>
  <line x1="348.66" y1="784.98" x2="360.66" y2="784.98" stroke="#cc0000" stroke-width="1.5"/>
  <line x1="348.66" y1="57.42" x2="360.66" y2="57.42" stroke="#cc0000" stroke-width="1.5"/>
  <text x="354.66" y="421.20" text-anchor="middle" dominant-baseline="middle" font-family="system-ui,sans-serif" font-size="14" font-weight="600" fill="#222">Body (cut x2)</text>
  <text x="354.66" y="441.20" text-anchor="middle" dominant-baseline="middle" font-family="system-ui,sans-serif" font-size="10" fill="#666">Seam allowance: 1.5 cm</text>
</g>
<g id="head" transform="translate(936.09,75.59)">
  <path d="M610.43,305.21 L600.03,226.22 L569.54,152.61 L521.03,89.39 L457.82,40.89 L384.21,10.40 L305.21,0.00 L226.22,10.40 L152.61,40.89 L89.39,89.39 L40.89,152.61 L10.40,226.22 L0.00,305.21 L10.40,384.21 L40.89,457.82 L89.39,521.03 L152.61,569.54 L226.22,600.03 L305.21,610.43 L384.21,600.03 L457.82,569.54 L521.03,521.03 L569.54,457.82 L600.03,384.21 Z" fill="none" stroke="#bbbbbb" stroke-width="0.7" stroke-dasharray="5 3"/>
  <path d="M553.25,305.21 L544.79,241.02 L520.02,181.20 L480.60,129.83 L429.23,90.41 L369.41,65.63 L305.21,57.18 L241.02,65.63 L181.20,90.41 L129.83,129.83 L90.41,181.20 L65.63,241.02 L57.18,305.21 L65.63,369.41 L90.41,429.23 L129.83,480.60 L181.20,520.02 L241.02,544.79 L305.21,553.25 L369.41,544.79 L429.23,520.02 L480.60,480.60 L520.02,429.23 L544.79,369.41 Z" fill="#eef3ff" stroke="#222222" stroke-width="1.5"/>
  <line x1="305.21" y1="458.76" x2="305.21" y2="151.67" stroke="#555" stroke-width="0.8" marker-end="url(#arr)" marker-start="url(#arr-r)" stroke-dasharray="6 3"/>
  <line x1="299.21" y1="553.25" x2="311.21" y2="553.25" stroke="#cc0000" stroke-width="1.5"/>
  <line x1="299.21" y1="57.18" x2="311.21" y2="57.18" stroke="#cc0000" stroke-width="1.5"/>
  <text x="305.21" y="305.21" text-anchor="middle" dominant-baseline="middle" font-family="system-ui,sans-serif" font-size="14" font-weight="600" fill="#222">Head (cut x2)</text>
  <text x="305.21" y="325.21" text-anchor="middle" dominant-baseline="middle" font-family="system-ui,sans-serif" font-size="10" fill="#666">Seam allowance: 1.5 cm</text>
</g>
<g id="ear" transform="translate(1697.70,75.59)">
  <path d="M0.00,137.18 L3.99,167.52 L17.14,199.26 L38.05,226.51 L65.31,247.43 L97.04,260.57 L127.39,264.57 L151.35,264.57 L181.70,260.57 L213.43,247.43 L240.69,226.51 L261.60,199.26 L274.75,167.52 L278.74,137.18 L278.74,127.39 L274.75,97.04 L261.60,65.31 L240.69,38.05 L213.43,17.14 L181.70,3.99 L151.35,0.00 L127.39,0.00 L97.04,3.99 L65.31,17.14 L38.05,38.05 L17.14,65.31 L3.99,97.04 L0.00,127.39 Z" fill="none" stroke="#bbbbbb" stroke-width="0.7" stroke-dasharray="5 3"/>
  <path d="M56.69,133.46 L59.23,152.72 L66.66,170.67 L78.49,186.08 L93.90,197.91 L111.84,205.34 L131.10,207.87 L147.64,207.87 L166.90,205.34 L184.84,197.91 L200.25,186.08 L212.08,170.67 L219.51,152.72 L222.05,133.46 L222.05,131.10 L219.51,111.84 L212.08,93.90 L200.25,78.49 L184.84,66.66 L166.90,59.23 L147.64,56.69 L131.10,56.69 L111.84,59.23 L93.90,66.66 L78.49,78.49 L66.66,93.90 L59.23,111.84 L56.69,131.10 Z" fill="#eef3ff" stroke="#222222" stroke-width="1.5"/>
  <line x1="139.37" y1="113.39" x2="139.37" y2="151.18" stroke="#555" stroke-width="0.8" marker-end="url(#arr)" marker-start="url(#arr-r)" stroke-dasharray="6 3"/>
  <line x1="133.37" y1="207.87" x2="145.37" y2="207.87" stroke="#cc0000" stroke-width="1.5"/>
  <text x="139.37" y="132.28" text-anchor="middle" dominant-baseline="middle" font-family="system-ui,sans-serif" font-size="14" font-weight="600" fill="#222">Ear (cut x4)</text>
  <text x="139.37" y="152.28" text-anchor="middle" dominant-baseline="middle" font-family="system-ui,sans-serif" font-size="10" fill="#666">Seam allowance: 1.5 cm</text>
</g>
<g id="arm" transform="translate(2127.62,75.59)">
  <path d="M345.46,240.31 L338.61,172.39 L318.07,109.05 L283.54,54.79 L234.24,15.31 L172.73,0.00 L111.22,15.31 L61.91,54.79 L27.38,109.05 L6.85,172.39 L0.00,240.31 L6.85,308.24 L27.38,371.57 L61.91,425.84 L111.22,465.32 L172.73,480.62 L234.24,465.32 L283.54,425.84 L318.07,371.57 L338.61,308.24 Z" fill="none" stroke="#bbbbbb" stroke-width="0.7" stroke-dasharray="5 3"/>
  <path d="M288.48,240.31 L282.81,184.11 L266.37,133.40 L240.76,93.16 L208.50,67.32 L172.73,58.42 L136.96,67.32 L104.69,93.16 L79.09,133.40 L62.65,184.11 L56.98,240.31 L62.65,296.52 L79.09,347.22 L104.69,387.46 L136.96,413.30 L172.73,422.20 L208.50,413.30 L240.76,387.46 L266.37,347.22 L282.81,296.52 Z" fill="#eef3ff" stroke="#222222" stroke-width="1.5"/>
  <line x1="172.73" y1="327.71" x2="172.73" y2="152.91" stroke="#555" stroke-width="0.8" marker-end="url(#arr)" marker-start="url(#arr-r)" stroke-dasharray="6 3"/>
  <line x1="166.73" y1="58.42" x2="178.73" y2="58.42" stroke="#cc0000" stroke-width="1.5"/>
  <text x="172.73" y="240.31" text-anchor="middle" dominant-baseline="middle" font-family="system-ui,sans-serif" font-size="14" font-weight="600" fill="#222">Arm (cut x4)</text>
  <text x="172.73" y="260.31" text-anchor="middle" dominant-baseline="middle" font-family="system-ui,sans-serif" font-size="10" fill="#666">Seam allowance: 1.5 cm</text>
</g>
<g id="leg" transform="translate(2624.26,75.59)">
  <path d="M446.30,189.43 L433.95,127.09 L399.69,73.28 L349.34,33.01 L288.75,8.31 L223.15,0.00 L157.54,8.31 L96.95,33.01 L46.61,73.28 L12.34,127.09 L0.00,189.43 L12.34,251.77 L46.61,305.58 L96.95,345.85 L157.54,370.55 L223.15,378.86 L288.75,370.55 L349.34,345.85 L399.69,305.58 L433.95,251.77 Z" fill="none" stroke="#bbbbbb" stroke-width="0.7" stroke-dasharray="5 3"/>
  <path d="M388.50,189.43 L380.41,148.55 L356.92,111.68 L320.34,82.41 L274.24,63.62 L223.15,57.15 L172.05,63.62 L125.95,82.41 L89.37,111.68 L65.89,148.55 L57.79,189.43 L65.89,230.31 L89.37,267.18 L125.95,296.45 L172.05,315.24 L223.15,321.71 L274.24,315.24 L320.34,296.45 L356.92,267.18 L380.41,230.31 Z" fill="#eef3ff" stroke="#222222" stroke-width="1.5"/>
  <line x1="223.15" y1="246.12" x2="223.15" y2="132.74" stroke="#555" stroke-width="0.8" marker-end="url(#arr)" marker-start="url(#arr-r)" stroke-dasharray="6 3"/>
  <line x1="217.15" y1="57.15" x2="229.15" y2="57.15" stroke="#cc0000" stroke-width="1.5"/>
  <text x="223.15" y="189.43" text-anchor="middle" dominant-baseline="middle" font-family="system-ui,sans-serif" font-size="14" font-weight="600" fill="#222">Leg (cut x4)</text>
  <text x="223.15" y="209.43" text-anchor="middle" dominant-baseline="middle" font-family="system-ui,sans-serif" font-size="10" fill="#666">Seam allowance: 1.5 cm</text>
</g>
<g id="tail" transform="translate(3221.73,75.59)">
  <path d="M221.43,110.72 L213.01,68.35 L189.01,32.43 L153.09,8.43 L110.72,0.00 L68.35,8.43 L32.43,32.43 L8.43,68.35 L0.00,110.72 L8.43,153.09 L32.43,189.01 L68.35,213.01 L110.72,221.43 L153.09,213.01 L189.01,189.01 L213.01,153.09 Z" fill="none" stroke="#bbbbbb" stroke-width="0.7" stroke-dasharray="5 3"/>
  <path d="M163.63,110.72 L159.60,90.47 L148.13,73.30 L130.97,61.83 L110.72,57.80 L90.47,61.83 L73.30,73.30 L61.83,90.47 L57.80,110.72 L61.83,130.97 L73.30,148.13 L90.47,159.60 L110.72,163.63 L130.97,159.60 L148.13,148.13 L159.60,130.97 Z" fill="#eef3ff" stroke="#222222" stroke-width="1.5"/>
  <line x1="110.72" y1="95.60" x2="110.72" y2="125.84" stroke="#555" stroke-width="0.8" marker-end="url(#arr)" marker-start="url(#arr-r)" stroke-dasharray="6 3"/>
  <line x1="104.72" y1="163.63" x2="116.72" y2="163.63" stroke="#cc0000" stroke-width="1.5"/>
  <text x="110.72" y="110.72" text-anchor="middle" dominant-baseline="middle" font-family="system-ui,sans-serif" font-size="14" font-weight="600" fill="#222">Tail (cut x2)</text>
  <text x="110.72" y="130.72" text-anchor="middle" dominant-baseline="middle" font-family="system-ui,sans-serif" font-size="10" fill="#666">Seam allowance: 1.5 cm</text>
</g>
</svg>